<?xml version="1.0" encoding="UTF-8"?>
<svg width="200" height="150" version="1.1" viewBox="0 0 52.917 39.688" xmlns="http://www.w3.org/2000/svg" xmlns:cc="http://creativecommons.org/ns#" xmlns:dc="http://purl.org/dc/elements/1.1/" xmlns:rdf="http://www.w3.org/1999/02/22-rdf-syntax-ns#">
 <metadata>
  <rdf:RDF>
   <cc:Work rdf:about="">
    <dc:format>image/svg+xml</dc:format>
    <dc:type rdf:resource="http://purl.org/dc/dcmitype/StillImage"/>
    <dc:title/>
   </cc:Work>
  </rdf:RDF>
 </metadata>
 <rect width="52.917" height="39.688" ry="0" fill="#fc0"/>
 <g transform="matrix(.035858 0 0 .036859 17.279 10.716)">
  <path d="m511.52 172.13-28.96-115.9c-3.552-14.24-16.352-24.224-31.04-24.224h-391.01c-14.688 0-27.488 9.984-31.072 24.224l-28.96 115.9c-0.32 1.248-0.48 2.56-0.48 3.872 0 44.096 34.08 80 76 80 24.352 0 46.08-12.128 60-30.944 13.92 18.816 35.648 30.944 60 30.944s46.08-12.128 60-30.944c13.92 18.816 35.616 30.944 60 30.944s46.08-12.128 60-30.944c13.92 18.816 35.616 30.944 60 30.944 41.92 0 76-35.904 76-80 0-1.312-0.16-2.624-0.48-3.872z"/>
  <path d="m436 288c-21.792 0-42.496-6.656-60-18.816-35.008 24.352-84.992 24.352-120 0-35.008 24.352-84.992 24.352-120 0-17.504 12.16-38.208 18.816-60 18.816-15.712 0-30.528-3.68-44-9.952v169.95c0 17.664 14.336 32 32 32h128v-128h128v128h128c17.664 0 32-14.336 32-32v-169.95c-13.472 6.272-28.288 9.952-44 9.952z"/>
 </g>
</svg>
