<?xml version="1.0" encoding="UTF-8"?>
<svg width="150" height="150" version="1.1" viewBox="0 0 39.688 39.688" xmlns="http://www.w3.org/2000/svg" xmlns:cc="http://creativecommons.org/ns#" xmlns:dc="http://purl.org/dc/elements/1.1/" xmlns:rdf="http://www.w3.org/1999/02/22-rdf-syntax-ns#">
 <metadata>
  <rdf:RDF>
   <cc:Work rdf:about="">
    <dc:format>image/svg+xml</dc:format>
    <dc:type rdf:resource="http://purl.org/dc/dcmitype/StillImage"/>
    <dc:title/>
   </cc:Work>
  </rdf:RDF>
 </metadata>
 <g>
  <g fill-rule="evenodd">
   <path d="m3.9687 25.135h13.229c0.7329 0 1.3229 0.59002 1.3229 1.3229v9.2604c0 0.7329-0.59002 1.3229-1.3229 1.3229h-13.229c-0.7329 0-1.3229-0.59002-1.3229-1.3229v-9.2604c0-0.7329 0.59002-1.3229 1.3229-1.3229z" fill="#fd5" stroke-width=".18709"/>
   <path d="m4.9977 2.6458h11.171c1.3029 0 2.3519 1.0489 2.3519 2.3519v16.463c0 1.3029-1.0489 2.3519-2.3519 2.3519h-11.171c-1.3029 0-2.3519-1.0489-2.3519-2.3519v-16.463c0-1.3029 1.0489-2.3519 2.3519-2.3519z" fill="#f55" stroke-width=".24945"/>
   <path d="m23.225 18.521h11.759c1.1401 0 2.0579 0.91781 2.0579 2.0579v14.405c0 1.1401-0.91781 2.0579-2.0579 2.0579h-11.759c-1.1401 0-2.0579-0.91781-2.0579-2.0579v-14.405c0-1.1401 0.91781-2.0579 2.0579-2.0579z" fill="#5df" stroke-width=".23334"/>
   <path d="m22.784 2.6458h12.641c0.89576 0 1.6169 0.72114 1.6169 1.6169v11.318c0 0.89576-0.72114 1.6169-1.6169 1.6169h-12.641c-0.89576 0-1.6169-0.72114-1.6169-1.6169v-11.318c0-0.89576 0.72114-1.6169 1.6169-1.6169z" fill="#f59" stroke-width=".20683"/>
  </g>
  <g aria-label="c">
   <path d="m22.811 15.15q-1.4732 0-1.9812 1.3716-0.508 1.3208-0.508 4.1656t0.4572 4.1148q0.508 1.27 2.032 1.27 1.5748 0 4.064-0.5588l0.9144 6.5024q-3.5052 1.1684-6.2484 1.1684-4.826 0-7.3152-3.2512-2.4384-3.2512-2.4384-9.0932t2.54-9.4488q2.54-3.6576 7.366-3.6576 3.6068 0 6.5024 1.2192l-0.9144 7.4676q-2.9464-1.27-4.4704-1.27z" stroke-width=".26458"/>
  </g>
 </g>
</svg>
