<?xml version="1.0" encoding="UTF-8"?>
<svg width="200mm" height="50mm" version="1.1" viewBox="0 0 200 50" xmlns="http://www.w3.org/2000/svg" xmlns:cc="http://creativecommons.org/ns#" xmlns:dc="http://purl.org/dc/elements/1.1/" xmlns:rdf="http://www.w3.org/1999/02/22-rdf-syntax-ns#">
 <metadata>
  <rdf:RDF>
   <cc:Work rdf:about="">
    <dc:format>image/svg+xml</dc:format>
    <dc:type rdf:resource="http://purl.org/dc/dcmitype/StillImage"/>
    <dc:title/>
   </cc:Work>
  </rdf:RDF>
 </metadata>
 <g stroke-width=".26458">
  <rect x="1.3147e-6" y="-1.2691e-6" width="201.08" height="50.271" ry="13.229" fill="#fc0"/>
  <g>
   <rect x="10.583" y="7.9375" width="13.229" height="18.521" ry="2.6458"/>
   <rect x="10.583" y="29.104" width="13.229" height="13.229" ry="2.6458"/>
   <rect x="26.458" y="7.9375" width="13.229" height="10.583" ry="2.6458"/>
   <rect x="26.458" y="21.167" width="13.229" height="21.167" ry="2.6458"/>
   <g aria-label="Catalogued">
    <path d="m50.694 24.667q0 3.0268 0.58473 4.3339 0.61912 1.2726 1.995 1.2726t3.8867-0.65352l0.89429 4.8498q-2.7173 0.99748-5.4689 0.99748-4.1275 0-6.0193-2.7173-1.8574-2.7517-1.8574-8.1518 0-5.4345 1.9606-8.2894 1.9606-2.8892 6.3976-2.8892 2.6141 0 4.9874 1.1007l-0.92869 5.3313q-2.6829-0.89429-3.7491-0.89429-1.5134 0-2.0981 1.3414-0.58473 1.307-0.58473 4.3683z"/>
    <path d="m72.228 22.948-0.17198 7.1199q0 0.65352 0.30956 0.89429 0.34396 0.20638 1.1351 0.20638l-0.51594 4.1619q-1.995 0.13758-2.2013 0.13758-2.5453 0-3.2332-1.7542h-0.17198q-1.2726 1.7542-3.9211 1.7542-2.0294 0-3.13-1.307-1.0663-1.307-1.0663-3.5772 0-2.8549 1.7542-3.9555 1.7886-1.1007 5.6065-1.4446v-0.8255q0-0.96308-0.96308-0.96308-1.651 0-5.1594 0.99748l-0.8599-5.0218q4.4027-1.1351 7.3263-1.1351t4.0931 1.1351q1.1695 1.1351 1.1695 3.5772zm-6.6384 8.4958q1.2726 0 1.2726-1.3414v-1.6854q-1.2726 0.17198-1.823 0.55033-0.51594 0.34396-0.51594 1.2039 0 1.2726 1.0663 1.2726z"/>
    <path d="m84.888 35.158q-2.5453 0.30956-4.4371 0.30956-1.8574 0-2.9236-0.96308-1.0319-0.99748-1.0319-3.4052v-7.9798h-1.651v-4.2651h1.9262l0.30956-3.1644h5.1938v3.1644h3.0612l-0.24077 4.2651h-2.8549v6.8448q0 0.72231 0.68792 0.72231 0.06879 0 2.1325-0.10319z"/>
    <path d="m99.715 22.948-0.17198 7.1199q0 0.65352 0.30956 0.89429 0.34396 0.20638 1.1351 0.20638l-0.51593 4.1619q-1.995 0.13758-2.2013 0.13758-2.5453 0-3.2332-1.7542h-0.17198q-1.2726 1.7542-3.9211 1.7542-2.0294 0-3.13-1.307-1.0663-1.307-1.0663-3.5772 0-2.8549 1.7542-3.9555 1.7886-1.1007 5.6065-1.4446v-0.8255q0-0.96308-0.96308-0.96308-1.651 0-5.1594 0.99748l-0.8599-5.0218q4.4027-1.1351 7.3263-1.1351t4.0931 1.1351q1.1695 1.1351 1.1695 3.5772zm-6.6384 8.4958q1.2726 0 1.2726-1.3414v-1.6854q-1.2726 0.17198-1.823 0.55033-0.51594 0.34396-0.51594 1.2039 0 1.2726 1.0663 1.2726z"/>
    <path d="m103.09 31.34v-18.264h5.6753v16.441q0 0.58473 0.24077 0.8255 0.27517 0.24077 0.92869 0.24077l-0.44715 4.8842h-1.8918q-2.2701 0-3.4052-0.92869-1.1007-0.96308-1.1007-3.1988z"/>
    <path d="m111.62 26.834q0-4.5402 1.7198-6.5696 1.7542-2.0294 5.4345-2.0294 3.7148 0 5.4001 1.995 1.6854 1.995 1.6854 6.5696 0 4.5402-1.651 6.604-1.651 2.0637-5.4001 2.0637-3.7492 0-5.4689-2.0637t-1.7198-6.5696zm8.255-3.2676q-0.20637-0.68792-1.1007-0.68792t-1.1351 0.68792-0.24077 2.8892v0.8255q0 2.4421 0.24077 3.1644t1.1007 0.72231q0.89429 0 1.1351-0.72231 0.24078-0.72231 0.24078-2.958v-0.99748q0-2.2357-0.24078-2.9236z"/>
    <path d="m133.47 36.637h3.5428q0.61912 0 0.61912-0.55033v-0.13758q0-0.51594-0.61912-0.51594h-3.5428q-0.55034 0-0.55034 0.55033v0.13758q0 0.51594 0.55034 0.51594zm1.3758-18.402h8.1174v3.8523h-2.4765v0.17198q1.1007 0.96308 1.1007 2.5109 0 5.5033-6.2256 5.5033h-1.651q-0.61913 0-0.61913 0.58473 0 0.55033 0.58473 0.55033h4.6778q3.9555 0 3.9555 3.4396 0 2.8205-1.8918 4.0587-1.8918 1.2726-5.2282 1.2726t-5.0562-0.72231q-1.6854-0.68792-1.6854-2.6141 0-1.0663 1.3414-1.7886v-0.13758q-1.6854-0.92869-1.6854-2.6829 0-2.0637 2.6485-3.13-1.2382-0.89429-1.8574-2.0637-0.58473-1.2039-0.58473-3.1644 0-2.7173 1.7542-4.1619 1.7886-1.479 4.781-1.479zm1.5134 6.604q0-1.1007-0.27517-1.5822-0.24077-0.51594-0.92869-0.51594-0.68791 0-0.96308 0.51594-0.24077 0.48154-0.24077 1.5134 0 2.0981 1.2382 2.0981 1.1695 0 1.1695-2.0294z"/>
    <path d="m148.85 35.468q-4.0931 0-4.0931-4.5402v-12.279h5.8473v10.869q0 0.8599 0.75671 0.8599 0.96308 0 1.6166-0.48154v-11.247h5.7785v16.407h-5.4689v-1.2039h-0.13759q-1.8918 1.6166-4.2995 1.6166z"/>
    <path d="m168.49 23.154q-0.89429 0-1.1695 0.61912-0.27517 0.58473-0.27517 1.823h2.9924v-0.8255q0-1.6166-1.5478-1.6166zm0.13758-4.9186q3.5428 0 5.0562 1.7198 1.5478 1.6854 1.5478 4.8498 0 0.41275-0.24077 3.7147h-7.8422q0 2.5797 2.3733 2.5797 1.1351 0 4.4371-0.7911l0.48154 4.2651q-2.8892 0.89429-5.7785 0.89429-3.5428 0-5.4345-2.3045-1.8918-2.3389-1.8918-6.3288 0-8.599 7.2919-8.599z"/>
    <path d="m192.19 35.33-2.3045 0.13758q-2.6485 0-3.2332-1.7542h-0.17198q-1.1351 1.7542-3.474 1.7542-3.0956 0-4.3683-2.1669-1.2382-2.1669-1.2382-6.432 0-4.2995 1.4102-6.4664 1.4102-2.1669 4.0587-2.1669 1.823 0 2.8204 0.8599v-6.0193h5.7441v16.992q0 0.65352 0.27517 0.89429 0.27516 0.20638 0.99748 0.20638zm-7.8078-12.245q-0.72231 0-0.96308 0.89429-0.24077 0.8599-0.24077 2.5109 0 1.6166 0.0344 2.2013 0.0344 0.58473 0.13758 1.2039 0.13758 0.58473 0.37835 0.8255 0.27517 0.20637 0.8599 0.20637 0.61912 0 1.2726-0.30956v-7.1199q-0.72231-0.41275-1.479-0.41275z"/>
   </g>
  </g>
 </g>
</svg>
